<svg width="497" height="112" viewBox="0 0 497 112" fill="none" xmlns="http://www.w3.org/2000/svg">
<style>path[fill="#FFFFFF"] { fill: #000000; }</style>
<path d="M256.633 24.8054V32.6876C257.411 27.4917 261.193 24.8054 266.283 24.8054H269.323V34.1368C262.642 34.1368 256.633 32.8997 256.633 41.6656V61H246.418V24.8054H256.633ZM287.59 61.7069C276.986 61.7069 268.432 53.6833 268.432 42.9734C268.432 32.4402 277.127 24.0984 287.59 24.0984C298.087 24.0984 306.747 32.4048 306.747 42.9734C306.747 53.6126 298.123 61.7069 287.59 61.7069ZM278.612 42.938C278.612 48.0279 282.429 52.1988 287.59 52.1988C292.75 52.1988 296.568 48.0279 296.568 42.938C296.568 37.8835 292.75 33.6066 287.59 33.6066C282.429 33.6066 278.612 37.8835 278.612 42.938ZM320.808 29.6832C323.565 26.1485 327.241 24.2045 331.765 24.2045C341.768 24.2045 348.52 33.3945 348.52 42.832C348.52 51.9513 341.38 61.5655 331.695 61.5655C327.276 61.5655 323.565 59.7982 320.808 56.3343V61H310.593V10.3134H320.808V29.6832ZM338.34 42.8673C338.34 37.7775 334.522 33.6066 329.362 33.6066C324.201 33.6066 320.349 37.7775 320.349 42.8673C320.349 47.9219 324.201 52.1988 329.362 52.1988C334.522 52.1988 338.34 47.9219 338.34 42.8673ZM370.144 61.7069C359.541 61.7069 350.987 53.6833 350.987 42.9734C350.987 32.4402 359.682 24.0984 370.144 24.0984C380.642 24.0984 389.302 32.4048 389.302 42.9734C389.302 53.6126 380.678 61.7069 370.144 61.7069ZM361.167 42.938C361.167 48.0279 364.984 52.1988 370.144 52.1988C375.305 52.1988 379.122 48.0279 379.122 42.938C379.122 37.8835 375.305 33.6066 370.144 33.6066C364.984 33.6066 361.167 37.8835 361.167 42.938ZM388.376 34.3135V24.8054H395.834V14.2015H406.049V24.8054H413.613V34.3135H406.049V61H395.834V34.3135H388.376ZM415.656 61V24.8054H425.907V61H415.656ZM415.656 21.2001V10.3134H425.907V21.2001H415.656ZM464.816 33.4652L456.474 38.1663C452.551 30.3194 439.791 33.0411 439.791 42.938C439.791 52.3755 451.667 55.8748 456.722 47.2503L464.745 52.4462C454.813 68.8115 429.611 62.025 429.611 42.9734C429.611 32.4402 438.306 24.0984 448.769 24.0984C455.379 24.0984 461.564 27.7391 464.816 33.4652ZM490.329 36.3636C487.713 34.8437 484.568 33.6066 481.528 33.6066C480.149 33.6066 477.18 33.8894 477.18 35.8688C477.18 39.9336 494.217 38.9086 494.217 50.3961C494.217 58.3844 486.547 61.7069 479.584 61.7069C475.236 61.7069 470.429 59.9043 466.576 58.0309L470.394 49.159C472.727 50.3254 476.897 52.2341 479.548 52.2341C480.892 52.2341 484.002 51.81 484.002 49.9013C484.002 45.7657 466.93 46.8261 466.93 35.48C466.93 27.4563 474.459 24.0984 481.492 24.0984C485.522 24.0984 490.117 25.7244 493.758 27.3503L490.329 36.3636Z" fill="#2AA9E0"/>
<g filter="url(#filter0_d_317_2)">
<path d="M107.616 40.3386C107.616 40.2793 107.616 40.2245 107.616 40.1697C107.616 38.9508 107.557 37.7502 107.434 36.5633C106.426 26.6752 101.335 18.006 93.8685 12.2631C93.1255 11.6925 92.3597 11.1492 91.5712 10.6379C88.8545 8.87123 85.878 7.4743 82.7146 6.51562C81.7665 6.22802 80.8047 5.97694 79.8292 5.76694C77.4681 5.26478 75.0112 5 72.4996 5C65.7444 5 59.4267 6.91279 54.0708 10.2316C48.7195 6.91279 42.4064 5 35.6466 5C32.0775 5 28.6315 5.52955 25.386 6.52932C22.2226 7.49256 19.2507 8.89405 16.5386 10.6653C7.85063 16.3124 1.81557 25.7074 0.71248 36.5633C0.593966 37.7502 0.530151 38.9508 0.530151 40.1697C0.530151 40.2291 0.530151 40.2838 0.530151 40.3386C0.557501 46.6796 2.26227 52.6234 5.22966 57.75C2.23948 62.9223 0.530151 68.93 0.530151 75.3349C0.530151 76.6085 0.598524 77.8731 0.730712 79.1102C1.7791 88.9618 6.89341 97.599 14.3643 103.301C15.1073 103.871 15.8776 104.41 16.6662 104.921C19.3874 106.679 22.3731 108.067 25.541 109.021C26.4891 109.309 27.4555 109.55 28.4355 109.756C30.7647 110.249 33.176 110.505 35.6466 110.505C42.4109 110.505 48.7195 108.587 54.0799 105.273C59.4358 108.592 65.7535 110.505 72.5088 110.505C76.0049 110.505 79.3825 109.993 82.5687 109.039C85.7412 108.09 88.7269 106.706 91.4527 104.953C100.182 99.3428 106.267 89.9661 107.425 79.1148C107.557 77.8731 107.625 76.6131 107.625 75.3394C107.625 68.9346 105.916 62.9269 102.926 57.7546C105.888 52.6279 107.598 46.6841 107.625 40.3432L107.616 40.3386ZM96.6399 79.1148C95.5323 86.2546 91.3478 92.3719 85.4814 96.0605C82.7055 97.809 79.5557 99.0142 76.1781 99.5209C74.9793 99.7035 73.7532 99.7948 72.5042 99.7948C69.0172 99.7948 65.7034 99.0644 62.7041 97.7405C59.372 96.2796 56.432 94.0975 54.0708 91.3813C51.2766 88.172 49.3075 84.2186 48.4961 79.8589C48.4506 79.6078 48.405 79.3613 48.3685 79.1102H37.5929C37.9211 82.178 38.6413 85.1225 39.7079 87.9072C40.1045 88.9526 40.5466 89.9706 41.0435 90.9613C42.2468 93.3945 43.7283 95.6679 45.4421 97.7405C42.4428 99.0644 39.129 99.7948 35.642 99.7948C35.4642 99.7948 35.2956 99.7948 35.1224 99.7902C34.0375 99.772 32.9709 99.6761 31.9225 99.5163C28.5494 99.0005 25.4043 97.7907 22.6329 96.0377C21.8352 95.5355 21.0694 94.9877 20.3401 94.3988C15.7044 90.6645 12.459 85.2686 11.5063 79.1148C11.3149 77.8822 11.2191 76.6222 11.2191 75.3394C11.2191 72.3447 11.757 69.4778 12.737 66.8255C18.3071 71.6325 25.3997 74.7186 33.1942 75.2572L38.2037 67.7887L40.6697 64.1138C40.1637 64.2234 39.6441 64.3146 39.129 64.3877C37.9895 64.552 36.8271 64.6388 35.642 64.6388C29.0463 64.6388 23.0568 62.0184 18.6627 57.7637C19.5014 56.9511 20.3994 56.1979 21.3429 55.5085C25.3633 52.596 30.2998 50.8841 35.6374 50.8841C36.8226 50.8841 37.9849 50.9708 39.1245 51.1351C41.0571 51.409 42.9215 51.9158 44.6809 52.6234L45.1413 53.3081L46.5316 55.3807L47.7987 57.2615L48.2272 57.9007L45.2416 62.3516L44.9407 62.8036L37.4106 74.0201L36.5263 75.3394V75.3486H48.1406L50.2875 72.1484L50.3604 72.0343L52.3888 69.0122L54.0344 66.5561L55.6981 69.035C55.7346 69.0122 55.7756 68.9848 55.8121 68.9528L55.7255 69.0806L57.7539 72.1073L59.9236 75.344L60.0421 75.522C60.0375 76.7455 59.9372 77.9461 59.7549 79.1239C59.1441 83.059 57.5989 86.6838 55.3517 89.7652C57.6581 92.5134 60.6164 94.7001 63.9804 96.0788C65.79 93.6045 67.2805 90.8837 68.3973 87.9757C69.473 85.1818 70.2023 82.2099 70.5305 79.1239C70.6627 77.8822 70.7311 76.6222 70.7311 75.3486H71.5424V75.3394C71.8478 75.344 72.1623 75.3486 72.4769 75.3486C80.4492 75.3486 87.8015 72.6871 93.6953 68.1996C94.2742 67.7613 94.8348 67.3048 95.3818 66.8346C96.3618 69.4869 96.8997 72.3538 96.8997 75.3486C96.8997 76.6359 96.7994 77.8959 96.6125 79.1239L96.6399 79.1148ZM96.9271 40.3386C96.9088 43.2694 96.3755 46.0815 95.4137 48.6791C90.0898 44.0866 83.371 41.0645 75.9821 40.3386H75.0294L69.8878 48.0035L67.6315 51.3634C68.0919 51.2721 68.5522 51.1899 69.0217 51.126C70.1567 50.9617 71.3236 50.8749 72.5088 50.8749C79.109 50.8749 85.094 53.4953 89.4881 57.7546C88.9958 58.2339 88.4853 58.6904 87.952 59.1195C83.7447 62.5662 78.3706 64.6342 72.5088 64.6342C71.3236 64.6342 70.1613 64.5475 69.0217 64.3831C66.9614 64.091 64.9877 63.5431 63.128 62.7625L62.8682 62.379L61.5508 60.4206L59.8597 57.8961L61.0859 56.07L62.973 53.2625L63.3878 52.6462L70.7265 41.7127L71.6427 40.3478H60.0193L58.0456 43.2877L55.8394 46.57L55.3517 47.2959L54.048 49.2406L52.3569 46.7161L52.2749 46.5974L50.0323 43.2557L48.0859 40.3569V40.3523C48.0859 40.293 48.0859 40.2382 48.0859 40.1834C48.0859 38.9554 48.1725 37.7548 48.3503 36.577C48.8654 33.0846 50.1143 29.8388 51.9376 26.9948C49.6767 24.1963 46.7093 21.9914 43.3089 20.6538C41.8275 22.8633 40.5968 25.2509 39.6441 27.78C38.5912 30.5647 37.8892 33.5092 37.5747 36.577C37.4562 37.7639 37.3924 38.9645 37.3924 40.1834V40.2245C37.0459 40.2108 36.6995 40.1971 36.3485 40.1925C36.1161 40.1925 35.8836 40.188 35.6466 40.188C34.4705 40.188 33.3128 40.2473 32.1732 40.3569C26.0743 40.9549 20.4313 43.1188 15.6497 46.4468C14.6378 47.1452 13.6669 47.8985 12.7416 48.7019C11.7798 46.1044 11.2419 43.2923 11.2283 40.3614C11.2283 40.3021 11.2283 40.2473 11.2283 40.1925C11.2283 38.9645 11.3149 37.7639 11.4926 36.5861C12.5456 29.4462 16.6844 23.3061 22.5098 19.5764C25.2675 17.8052 28.399 16.5817 31.763 16.043C33.0347 15.8376 34.3338 15.7326 35.6557 15.7326C39.1427 15.7326 42.4565 16.463 45.4558 17.7869C48.7879 19.2478 51.7279 21.4344 54.0845 24.1461C56.9106 27.3965 58.8934 31.4047 59.6865 35.8237C59.7321 36.0794 59.7731 36.335 59.8142 36.5907H70.5898C70.2752 33.5046 69.5596 30.5373 68.4975 27.7434C68.1055 26.6935 67.6588 25.6709 67.1711 24.6757C65.9541 22.2014 64.4544 19.8914 62.7132 17.7869C65.7125 16.463 69.0263 15.7326 72.5133 15.7326C72.7321 15.7326 72.9509 15.7326 73.1651 15.7372C74.2454 15.7691 75.3121 15.865 76.3559 16.0339C79.7244 16.5635 82.8559 17.7869 85.6182 19.549C86.4113 20.0558 87.1725 20.6036 87.9018 21.1971C92.533 24.9633 95.7602 30.4003 96.6718 36.5861C96.8496 37.7639 96.9362 38.9645 96.9362 40.1925C96.9362 40.2519 96.9362 40.3067 96.9362 40.3614L96.9271 40.3386Z" fill="#2AA9E0"/>
</g>
<path d="M146.738 66.2015C147.035 66.2863 147.84 66.3286 148.094 66.7946L147.247 70.0143C147.289 70.099 147.374 70.1414 147.543 70.2685C147.798 70.5226 147.67 70.4379 147.967 70.6497C148.391 70.9039 148.391 70.8192 148.814 71.031C149.534 71.3699 150 71.5817 150.297 72.1325C150.721 72.9797 150.678 73.4457 150.89 75.5639L151.144 78.6565C151.187 78.6988 151.144 79.1648 151.144 79.2919V79.9274C151.144 80.3087 151.102 80.6476 151.102 81.0289V82.0879C151.102 82.3845 150.975 82.9352 151.06 83.1894C151.06 83.7401 151.06 83.5707 151.695 84.0367C151.907 84.5027 151.695 84.8416 151.568 85.35L150.932 85.8583C150.932 86.1125 151.017 86.3243 151.017 86.5361L150.551 91.4503L150.339 92.4247C150.339 92.7636 150.382 93.0602 150.382 93.3991C150.297 93.738 150.212 94.0345 150.128 94.3734C150.043 94.5853 149.958 95.0936 149.958 95.3054C149.958 95.602 149.873 95.8985 149.746 96.2798C149.662 96.534 149.577 97.1695 149.577 97.2542C149.534 97.3389 149.407 97.7202 148.814 98.1862C148.687 98.2709 148.264 98.7369 147.798 98.7369C147.543 98.5251 147.501 97.8896 147.501 97.5931V96.0256C147.416 95.8562 147.543 95.5596 147.543 95.3478V89.6711C147.543 89.3322 147.67 88.9509 147.67 88.612V87.9342C147.67 87.8918 147.586 86.8751 147.543 86.748C147.12 86.748 147.12 86.6632 146.654 86.9598L145.976 87.1716C145.722 87.2563 144.112 87.4258 143.985 87.4681L143.053 87.7647C142.714 87.9342 142.333 87.9342 141.994 88.0612C140.13 88.6967 139.875 89.2474 138.011 89.5863C137.63 91.1114 137.545 91.1962 136.868 92.6789L136.486 94.1193C136.19 94.7971 136.613 94.5005 136.19 95.136L136.02 95.8138C135.893 95.9409 135.724 96.1527 135.724 96.4493V97.3813L135.512 97.6355L135.47 97.8049L135.385 97.9744L135.004 99.1182C134.834 99.33 134.792 99.4571 134.58 99.7113C134.326 99.9231 134.326 99.8807 133.987 100.008C133.521 100.135 133.267 100.177 132.716 99.9655C132.589 98.9487 132.589 98.4827 132.801 97.7202L134.326 92.0858L134.622 91.1538V90.5607L133.606 90.3489C133.733 88.7391 133.479 86.8751 135.173 86.0278C135.343 85.9854 136.063 85.816 136.232 85.6465C136.529 85.35 136.529 84.884 136.613 84.545C136.741 84.1214 137.545 82.554 137.588 82.4269L137.842 81.2407C137.969 80.9865 138.011 80.7323 138.139 80.4781L139.579 75.9452C140.13 74.3354 140.723 72.9374 141.612 71.8359L141.189 71.3699C141.274 70.8615 140.977 70.3532 141.697 69.8025C141.74 69.7601 143.138 69.3788 143.265 69.2941L143.434 69.1246L143.519 68.8705C143.773 68.5739 143.731 68.5739 143.815 68.3197C144.027 67.769 143.942 68.0232 144.62 67.5995C145.171 67.1759 145.002 67.2606 145.679 67.0064C146.315 66.5828 146.103 66.6675 146.738 66.2015ZM143.561 75.9028C143.561 76.2841 143.476 76.4959 143.265 76.8348L143.138 77.089L143.095 77.3008C143.01 77.4703 142.926 77.5974 142.799 77.7668C142.672 78.0634 142.544 78.4447 142.417 78.6565C142.036 79.0801 141.994 79.1648 141.824 79.5461L140.638 83.02C140.511 83.3589 140.553 83.2741 140.214 83.6978C140.13 83.8672 139.96 84.2909 139.875 84.418V85.1805V85.2652H140.045L140.214 85.2229H140.384L142.587 85.0111C142.968 85.0111 143.307 84.884 143.688 84.884H144.959C145.129 84.884 147.501 84.2485 147.586 84.2485V83.02C147.586 82.5963 147.501 82.1303 147.501 81.7914V80.2239C147.416 79.9698 147.416 79.5885 147.416 79.3767V78.1481C147.416 77.8939 147.459 77.5974 147.459 77.4279C146.442 75.7334 146.569 75.6487 144.747 74.6319C144.366 74.8861 143.773 75.5639 143.561 75.9028ZM160.297 93.9074C162.627 92.2976 163.813 90.5607 165.55 87.9342L166.651 86.748C167.583 86.7056 168.219 86.6632 168.6 87.214C168.685 87.4258 168.685 90.1794 169.024 90.8149C169.278 91.2385 169.659 91.5774 170.125 91.6198C170.337 91.6198 170.591 91.5351 171.311 91.0267C171.608 90.7725 171.82 90.6454 171.904 90.5607L172.201 90.3489L172.328 90.3065L172.498 90.3913C172.582 91.4503 172.625 91.6622 172.582 92.806C170.803 94.204 168.939 95.3478 167.499 94.8818C166.058 94.3311 165.635 92.806 165.211 91.7045C164.576 92.5942 161.441 97.3389 158.941 97.3813C158.306 97.3813 157.458 97.0847 156.992 96.3645C156.399 95.602 156.103 92.1282 156.06 91.3656L155.34 91.874L155.086 92.0858L154.917 92.3823C154.705 92.5094 154.493 92.6365 154.324 92.806C154.027 93.0602 153.349 93.7804 153.264 93.3991C153.307 90.9843 152.629 91.7045 154.79 89.4169L155.806 88.2307C156.272 87.5105 156.611 87.4258 156.908 86.748C157.247 86.3667 157.501 86.1125 158.009 85.2652C159.068 83.7401 159.195 83.2318 160.509 83.02C161.017 82.9352 161.356 83.0623 161.525 83.2318C161.695 83.4436 161.737 83.6978 161.441 84.6721C160.339 88.4002 159.492 91.4927 160.297 93.9074ZM184.407 76.9196L185 77.3856V78.2328C184.958 78.487 184.958 78.8683 184.958 79.1225C184.958 79.9274 184.958 80.4358 184.534 80.7323C184.365 80.8594 183.306 80.9865 183.136 81.0289L181.738 85.5618C181.738 86.1972 181.611 86.282 181.399 86.8327L181.145 87.8918L180.721 89.9676V90.7725C180.594 91.2809 180.298 92.8907 180.255 93.7804L180.594 94.0345C180.933 93.9498 181.569 93.4414 181.908 93.1873L182.882 92.3823C183.136 92.1282 183.729 91.4927 183.983 91.3656L185.297 90.3065L185.551 90.5183C185.381 93.6956 186.144 92.3823 183.051 95.2207L182.374 95.7291C182.035 96.0256 179.027 98.9064 178.476 98.864L177.587 98.3133C177.205 98.0591 177.078 98.2709 176.782 97.7625C176.231 96.9576 176.951 92.2976 177.121 91.4927L177.375 89.8405C177.459 89.3745 177.544 89.078 177.587 88.9932C177.714 88.6967 177.968 88.4002 177.798 88.1036C177.587 88.2307 177.163 88.8238 176.951 89.1627L172.503 93.5685C172.461 93.3991 172.418 92.9754 172.418 92.7636V91.874C172.418 90.7725 172.122 91.2809 173.138 90.1794L175.129 87.9342C176.527 86.1549 176.612 86.0701 178.603 82.554L179.451 80.9441L179.112 80.6899C178.349 80.7747 175.892 80.9865 173.054 80.2663C172.842 79.9698 172.884 79.885 172.884 79.5038C172.884 79.419 172.927 79.0801 172.969 78.6141L173.054 77.7668C173.308 77.2161 173.054 77.3008 173.604 76.9196H176.655C177.587 76.8772 180.764 77.3432 181.484 76.4536C182.035 75.7334 182.204 73.6999 183.602 73.1492C183.983 73.0221 184.322 73.0645 184.704 73.4034C185.127 73.7846 185.127 74.3777 184.915 75.3097C184.831 75.4368 184.619 75.9876 184.619 76.0723C184.492 76.4536 184.407 76.5807 184.407 76.9196ZM195.496 83.02C195.496 83.5283 194.776 83.7825 195.115 84.2909C196.725 83.613 197.699 83.2741 198.885 84.0367C200.071 84.7992 200.368 85.816 200.41 87.1292C200.453 89.544 197.445 93.8651 195.157 95.6444C193.59 96.8729 191.726 97.7202 189.989 97.1695C189.184 96.9153 187.998 95.9833 187.701 94.9665C187.532 94.3734 187.701 91.874 187.786 91.2809L185.922 92.8483C185.71 92.9754 185.752 92.9331 185.541 93.1449L185.414 93.3567L185.244 93.3991C185.244 93.1025 185.329 93.1449 185.244 92.806L185.202 92.6365V92.4671L185.244 92.2976V92.1282V92.0011V91.8316C185.244 91.8316 185.202 91.6622 185.202 91.4927C185.244 91.3233 185.244 91.1538 185.244 90.8996L190.54 85.5618C190.709 85.4347 191.006 85.0534 191.768 84.4603C192.488 83.7825 192.319 83.7825 192.912 83.3165C194.013 82.3421 194.352 82.7658 195.496 83.02ZM201.512 90.4336L201.808 90.5183L201.978 90.8149C202.317 92.4247 202.613 92.5094 200.749 93.8227C200.622 93.9498 200.241 94.2464 199.987 94.4158C199.86 94.5005 199.351 94.8818 199.097 94.9665C198.801 95.136 198.335 95.4749 198.25 95.602C197.953 95.7715 197.784 95.8562 197.36 95.8562L197.148 95.3054L197.699 94.5853L201.512 90.4336ZM195.877 87.3411C195.369 87.3411 195.03 87.4681 194.776 87.6376L194.268 88.0612L193.929 88.612C193.463 89.2474 193.675 89.078 192.997 89.5863C192.488 89.7558 192.404 89.6287 192.149 90.2218C192.065 90.3913 191.599 91.1962 191.556 91.2385C191.175 92.0858 190.921 93.3567 191.26 93.9074C191.472 94.2887 191.895 94.4582 192.277 94.5005C193.166 94.5005 195.327 92.8907 196.132 91.874C196.725 91.3233 196.598 91.1538 196.682 90.8149C196.767 90.5607 196.809 90.3913 197.148 89.7982C197.318 89.2051 197.233 88.7814 196.852 87.7223C196.64 87.3834 196.301 87.3411 195.877 87.3411ZM208.996 92.5094C209.505 92.34 209.378 92.0858 209.716 91.7045C210.182 91.1114 209.971 91.3233 210.648 90.8996C210.818 90.7302 210.818 90.476 211.369 89.9252C211.538 89.7558 211.623 89.6287 211.792 89.4592C212.089 89.2898 212.046 89.3745 212.301 89.0356C213.741 87.5529 214.673 86.6632 216.156 86.748C217.215 86.7903 217.596 87.2987 218.274 88.612C218.613 89.2474 219.079 91.3656 219.969 91.6622C220.265 91.6622 220.646 91.7045 221.028 91.2809C221.367 90.8573 221.621 90.5607 222.129 90.7302C222.214 92.7213 222.722 92.7636 220.985 94.2464C220.138 95.0513 219.248 95.6444 218.232 95.3478C217.596 95.2207 217.13 94.7547 216.495 93.7804C216.198 93.3567 216.113 93.3567 215.944 92.7636C215.309 92.1282 215.478 92.1282 215.097 91.8316C214.97 91.5351 214.588 90.8573 213.995 91.1114C213.402 91.2385 210.987 93.3567 210.606 93.8227C210.521 94.0769 210.267 94.4582 210.098 94.7124C209.886 95.0513 209.759 95.136 209.335 95.4749C208.954 96.0256 209.208 95.8138 208.7 96.3645C208.7 96.3645 207.852 97.0847 207.768 97.1695C207.09 97.8473 207.217 98.1862 206.243 98.5251L205.438 98.6098C205.184 98.6098 204.802 98.5675 204.506 98.3556C204.379 96.1951 204.845 94.7124 205.522 92.4671L205.777 91.4927C205.777 91.3656 205.777 91.1114 205.904 90.8996C206.073 90.5183 205.904 90.6031 205.904 90.2218L206.116 89.7982L205.861 89.544C205.692 89.544 205.311 89.6287 204.972 89.9676C204.675 90.2218 204.506 90.5607 204.209 90.8996C203.997 91.1114 203.658 91.4503 203.362 91.7469C203.065 92.0434 202.726 92.4671 202.557 92.7636L201.667 93.5262C201.752 92.6365 201.752 92.34 201.752 92.0434C201.71 91.8316 201.71 90.7725 201.837 90.5607C202.176 89.7558 202.854 89.0356 204.124 87.5105L204.59 87.0021C205.946 85.5618 207.556 83.1047 209.293 83.1894C209.674 83.2318 210.225 83.486 210.648 84.1214C211.453 85.3923 210.31 87.7647 209.801 89.544L209.081 91.7469C208.996 92.0011 208.912 92.2553 208.996 92.5094ZM232.358 83.02C232.358 83.5283 231.637 83.7825 231.976 84.2909C233.586 83.613 234.561 83.2741 235.747 84.0367C236.933 84.7992 237.229 85.816 237.272 87.1292C237.314 89.544 234.306 93.8651 232.019 95.6444C230.451 96.8729 228.587 97.7202 226.85 97.1695C226.045 96.9153 224.859 95.9833 224.563 94.9665C224.393 94.3734 224.563 91.874 224.647 91.2809L222.783 92.8483C222.572 92.9754 222.614 92.9331 222.402 93.1449L222.275 93.3567L222.106 93.3991C222.106 93.1025 222.19 93.1449 222.106 92.806L222.063 92.6365V92.4671L222.106 92.2976V92.1282V92.0011V91.8316C222.106 91.8316 222.063 91.6622 222.063 91.4927C222.106 91.3233 222.106 91.1538 222.106 90.8996L227.401 85.5618C227.571 85.4347 227.867 85.0534 228.63 84.4603C229.35 83.7825 229.18 83.7825 229.773 83.3165C230.875 82.3421 231.214 82.7658 232.358 83.02ZM238.373 90.4336L238.67 90.5183L238.839 90.8149C239.178 92.4247 239.475 92.5094 237.611 93.8227C237.484 93.9498 237.102 94.2464 236.848 94.4158C236.721 94.5005 236.213 94.8818 235.959 94.9665C235.662 95.136 235.196 95.4749 235.111 95.602C234.815 95.7715 234.645 95.8562 234.222 95.8562L234.01 95.3054L234.561 94.5853L238.373 90.4336ZM232.739 87.3411C232.231 87.3411 231.892 87.4681 231.637 87.6376L231.129 88.0612L230.79 88.612C230.324 89.2474 230.536 89.078 229.858 89.5863C229.35 89.7558 229.265 89.6287 229.011 90.2218C228.926 90.3913 228.46 91.1962 228.418 91.2385C228.037 92.0858 227.782 93.3567 228.121 93.9074C228.333 94.2887 228.757 94.4582 229.138 94.5005C230.028 94.5005 232.188 92.8907 232.993 91.874C233.586 91.3233 233.459 91.1538 233.544 90.8149C233.629 90.5607 233.671 90.3913 234.01 89.7982C234.179 89.2051 234.095 88.7814 233.713 87.7223C233.501 87.3834 233.163 87.3411 232.739 87.3411ZM254.881 83.02C255.263 83.3165 255.305 83.2318 255.474 83.6978C255.517 83.7401 255.601 84.0367 255.644 84.545C255.686 85.0534 255.601 85.6889 255.517 86.3243C255.432 86.5785 255.474 86.8751 255.39 87.1716C255.39 87.4258 255.305 87.7223 255.305 88.0189L254.881 89.7558V90.7302C255.39 90.1794 258.863 86.748 260.346 87.0021C261.914 87.2987 262.591 89.8829 263.269 90.8996C263.651 91.408 264.074 91.7893 264.583 91.7045C264.794 91.7045 265.091 91.5774 265.642 91.1114C265.853 90.8996 266.235 90.1794 266.616 90.1794C266.447 92.8907 267.209 93.3144 265.176 94.5853C264.117 95.2207 263.312 95.3478 262.041 94.6276C260.177 93.5262 259.245 91.408 258.143 91.2809C256.576 91.1538 255.856 92.8483 253.992 94.8818L252.805 96.1951C252 97.0847 251.831 97.3389 250.348 97.7202L249.755 96.9576L250.433 93.9922C250.433 93.8651 250.56 93.6109 250.645 93.3991L251.026 91.874C251.323 90.6031 251.28 90.4336 251.492 89.0356L251.196 88.7814C250.941 88.7814 250.136 88.9932 249.798 89.5863C249.501 90.0947 249.204 89.9252 248.4 90.7725L246.027 93.3991C245.476 93.9922 243.146 96.9576 242.13 96.9576C241.664 96.9576 241.325 96.7882 241.198 96.5764C240.944 96.1527 242.003 93.1025 242.13 92.6789L242.426 91.5351L242.723 90.0523L242.469 89.7982C242.214 89.7982 241.621 89.8829 241.41 90.3913L240.901 91.0267C240.096 91.8316 239.715 92.0858 239.673 92.1282L238.529 93.1449C238.529 92.1705 238.571 91.1114 238.571 90.7302L239.418 89.6287L241.452 87.5105C242.426 86.4938 244.799 83.486 246.451 83.8249C247.002 83.8249 247.298 84.0367 247.298 84.6298C247.383 84.884 247.298 86.1125 247.086 87.0021L246.874 88.146C246.79 88.3578 246.493 89.1203 246.832 89.3745C247.171 89.2474 247.34 89.1203 247.637 88.6967L250.136 86.3243C251.873 84.5874 253.017 83.2318 254.881 83.02ZM276.666 83.02C276.666 83.5283 275.946 83.7825 276.285 84.2909C277.894 83.613 278.869 83.2741 280.055 84.0367C281.241 84.7992 281.538 85.816 281.58 87.1292C281.622 89.544 278.615 93.8651 276.327 95.6444C274.759 96.8729 272.895 97.7202 271.159 97.1695C270.354 96.9153 269.167 95.9833 268.871 94.9665C268.701 94.3734 268.871 91.874 268.956 91.2809L267.092 92.8483C266.88 92.9754 266.922 92.9331 266.71 93.1449L266.583 93.3567L266.414 93.3991C266.414 93.1025 266.499 93.1449 266.414 92.806L266.371 92.6365V92.4671L266.414 92.2976V92.1282V92.0011V91.8316C266.414 91.8316 266.371 91.6622 266.371 91.4927C266.414 91.3233 266.414 91.1538 266.414 90.8996L271.709 85.5618C271.879 85.4347 272.175 85.0534 272.938 84.4603C273.658 83.7825 273.489 83.7825 274.082 83.3165C275.183 82.3421 275.522 82.7658 276.666 83.02ZM282.681 90.4336L282.978 90.5183L283.147 90.8149C283.486 92.4247 283.783 92.5094 281.919 93.8227C281.792 93.9498 281.411 94.2464 281.156 94.4158C281.029 94.5005 280.521 94.8818 280.267 94.9665C279.97 95.136 279.504 95.4749 279.419 95.602C279.123 95.7715 278.953 95.8562 278.53 95.8562L278.318 95.3054L278.869 94.5853L282.681 90.4336ZM277.047 87.3411C276.539 87.3411 276.2 87.4681 275.946 87.6376L275.437 88.0612L275.098 88.612C274.632 89.2474 274.844 89.078 274.166 89.5863C273.658 89.7558 273.573 89.6287 273.319 90.2218C273.234 90.3913 272.768 91.1962 272.726 91.2385C272.345 92.0858 272.091 93.3567 272.429 93.9074C272.641 94.2887 273.065 94.4582 273.446 94.5005C274.336 94.5005 276.496 92.8907 277.301 91.874C277.894 91.3233 277.767 91.1538 277.852 90.8149C277.937 90.5607 277.979 90.3913 278.318 89.7982C278.487 89.2051 278.403 88.7814 278.021 87.7223C277.81 87.3834 277.471 87.3411 277.047 87.3411ZM289.912 93.9074C292.242 92.2976 293.428 90.5607 295.165 87.9342L296.266 86.748C297.198 86.7056 297.834 86.6632 298.215 87.214C298.3 87.4258 298.3 90.1794 298.639 90.8149C298.893 91.2385 299.274 91.5774 299.74 91.6198C299.952 91.6198 300.206 91.5351 300.926 91.0267C301.223 90.7725 301.435 90.6454 301.519 90.5607L301.816 90.3489L301.943 90.3065L302.113 90.3913C302.197 91.4503 302.24 91.6622 302.197 92.806C300.418 94.204 298.554 95.3478 297.114 94.8818C295.673 94.3311 295.25 92.806 294.826 91.7045C294.191 92.5942 291.056 97.3389 288.556 97.3813C287.921 97.3813 287.073 97.0847 286.607 96.3645C286.014 95.602 285.718 92.1282 285.675 91.3656L284.955 91.874L284.701 92.0858L284.532 92.3823C284.32 92.5094 284.108 92.6365 283.938 92.806C283.642 93.0602 282.964 93.7804 282.879 93.3991C282.922 90.9843 282.244 91.7045 284.404 89.4169L285.421 88.2307C285.887 87.5105 286.226 87.4258 286.523 86.748C286.862 86.3667 287.116 86.1125 287.624 85.2652C288.683 83.7401 288.81 83.2318 290.124 83.02C290.632 82.9352 290.971 83.0623 291.14 83.2318C291.31 83.4436 291.352 83.6978 291.056 84.6721C289.954 88.4002 289.107 91.4927 289.912 93.9074ZM311.396 94.204C312.031 93.738 312.709 93.272 313.641 92.2976C313.937 92.1282 314.361 91.5774 314.615 91.2385C314.785 91.1114 315.42 90.2218 315.717 90.5183C315.505 92.0858 316.225 92.6365 315.166 93.7804C315.039 93.9498 314.149 94.8394 313.683 95.136L313.514 95.3054L313.302 95.4325C313.09 95.6444 313.132 95.5596 312.878 95.7291C312.328 95.9833 312.116 96.1951 311.989 96.2375L309.786 98.1862C309.447 98.7793 309.023 98.9487 308.515 99.1182C307.964 99.33 307.795 99.8384 307.032 99.2876V98.6098C306.439 96.9576 306.227 95.6444 306.185 95.3054C306.1 94.5005 306.015 94.0769 306.269 93.6533C306.354 93.5685 306.524 93.272 306.99 93.0178C307.54 92.806 307.286 92.806 307.837 92.806L308.345 93.5685C309.023 91.4927 309.023 90.2642 309.065 88.1036L308.599 87.7223C308.176 87.7223 307.879 88.2731 307.371 88.6543C306.566 89.2474 306.863 88.9932 306.142 89.7558L305.168 90.6878C304.787 90.8996 304.151 91.6622 303.812 92.0011L303.007 92.806C302.711 93.1025 302.414 93.3567 302.118 93.3567C302.118 93.1025 302.16 92.0434 302.075 91.8316C302.075 90.9843 301.864 91.2385 302.669 90.3489L307.117 85.816C308.218 84.6721 309.998 82.215 311.396 82.3845C312.073 82.4692 312.794 82.7658 313.09 83.3165C313.81 84.5874 312.836 89.078 311.692 92.2553L311.48 93.0178C311.396 93.1873 311.141 93.8227 311.396 94.204ZM331.523 68.1079C331.862 68.4892 331.862 68.701 331.989 69.0823C331.989 69.2517 331.82 69.7177 331.82 70.099V70.8192C331.65 71.2428 331.523 71.2428 331.523 71.9206L330.973 74.9285C330.973 75.2674 330.803 75.6487 330.803 75.7334L330.083 79.3767C329.956 79.6732 329.871 80.1816 329.871 80.6052L329.066 85.8583C328.981 86.5361 328.981 86.5785 328.939 86.9174L328.473 92.2553C328.304 92.5942 328.346 92.8483 328.346 93.272C328.558 93.9922 328.388 93.9922 328.515 94.3311C328.515 94.5853 328.515 95.0089 328.515 95.3054L328.6 95.8562L328.727 96.1104L328.897 96.3645C328.897 97.1695 328.897 96.7458 327.965 97.7202C327.033 98.2709 327.202 98.3556 326.524 98.3556L325.889 97.9744C324.915 95.8562 325.296 93.0602 325.338 90.9843V90.1794L325.508 89.9252C325.338 88.3154 325.338 88.146 325.508 86.5361L325.931 83.5283V82.4692C325.931 82.1727 326.101 81.7067 326.101 81.3254C326.101 81.0712 325.974 80.5629 326.101 80.2239L326.016 79.6732L325.719 79.5038L325.55 79.3343L325.465 79.1648C325.296 77.7668 326.482 70.3955 328.346 69.0823C328.897 68.701 329.278 68.7857 329.913 68.5315C330.718 67.9808 330.803 68.1079 331.523 68.1079ZM339.108 92.5094C339.616 92.34 339.489 92.0858 339.828 91.7045C340.294 91.1114 340.082 91.3233 340.76 90.8996C340.929 90.7302 340.929 90.476 341.48 89.9252C341.65 89.7558 341.734 89.6287 341.904 89.4592C342.2 89.2898 342.158 89.3745 342.412 89.0356C343.852 87.5529 344.784 86.6632 346.267 86.748C347.326 86.7903 347.708 87.2987 348.385 88.612C348.724 89.2474 349.19 91.3656 350.08 91.6622C350.376 91.6622 350.758 91.7045 351.139 91.2809C351.478 90.8573 351.732 90.5607 352.24 90.7302C352.325 92.7213 352.834 92.7636 351.097 94.2464C350.249 95.0513 349.36 95.6444 348.343 95.3478C347.708 95.2207 347.242 94.7547 346.606 93.7804C346.31 93.3567 346.225 93.3567 346.055 92.7636C345.42 92.1282 345.589 92.1282 345.208 91.8316C345.081 91.5351 344.7 90.8573 344.107 91.1114C343.514 91.2385 341.099 93.3567 340.718 93.8227C340.633 94.0769 340.379 94.4582 340.209 94.7124C339.997 95.0513 339.87 95.136 339.447 95.4749C339.065 96.0256 339.32 95.8138 338.811 96.3645C338.811 96.3645 337.964 97.0847 337.879 97.1695C337.201 97.8473 337.328 98.1862 336.354 98.5251L335.549 98.6098C335.295 98.6098 334.914 98.5675 334.617 98.3556C334.49 96.1951 334.956 94.7124 335.634 92.4671L335.888 91.4927C335.888 91.3656 335.888 91.1114 336.015 90.8996C336.185 90.5183 336.015 90.6031 336.015 90.2218L336.227 89.7982L335.973 89.544C335.803 89.544 335.422 89.6287 335.083 89.9676C334.787 90.2218 334.617 90.5607 334.321 90.8996C334.109 91.1114 333.77 91.4503 333.473 91.7469C333.177 92.0434 332.838 92.4671 332.668 92.7636L331.779 93.5262C331.864 92.6365 331.864 92.34 331.864 92.0434C331.821 91.8316 331.821 90.7725 331.948 90.5607C332.287 89.7558 332.965 89.0356 334.236 87.5105L334.702 87.0021C336.058 85.5618 337.667 83.1047 339.404 83.1894C339.786 83.2318 340.336 83.486 340.76 84.1214C341.565 85.3923 340.421 87.7647 339.913 89.544L339.192 91.7469C339.108 92.0011 339.023 92.2553 339.108 92.5094ZM364.164 76.9196L364.757 77.3856V78.2328C364.714 78.487 364.714 78.8683 364.714 79.1225C364.714 79.9274 364.714 80.4358 364.291 80.7323C364.121 80.8594 363.062 80.9865 362.893 81.0289L361.495 85.5618C361.495 86.1972 361.368 86.282 361.156 86.8327L360.902 87.8918L360.478 89.9676V90.7725C360.351 91.2809 360.054 92.8907 360.012 93.7804L360.351 94.0345C360.69 93.9498 361.325 93.4414 361.664 93.1873L362.638 92.3823C362.893 92.1282 363.486 91.4927 363.74 91.3656L365.053 90.3065L365.307 90.5183C365.138 93.6956 365.9 92.3823 362.808 95.2207L362.13 95.7291C361.791 96.0256 358.783 98.9064 358.233 98.864L357.343 98.3133C356.962 98.0591 356.835 98.2709 356.538 97.7625C355.987 96.9576 356.708 92.2976 356.877 91.4927L357.131 89.8405C357.216 89.3745 357.301 89.078 357.343 88.9932C357.47 88.6967 357.724 88.4002 357.555 88.1036C357.343 88.2307 356.919 88.8238 356.708 89.1627L352.259 93.5685C352.217 93.3991 352.175 92.9754 352.175 92.7636V91.874C352.175 90.7725 351.878 91.2809 352.895 90.1794L354.886 87.9342C356.284 86.1549 356.369 86.0701 358.36 82.554L359.207 80.9441L358.868 80.6899C358.106 80.7747 355.648 80.9865 352.81 80.2663C352.598 79.9698 352.641 79.885 352.641 79.5038C352.641 79.419 352.683 79.0801 352.725 78.6141L352.81 77.7668C353.064 77.2161 352.81 77.3008 353.361 76.9196H356.411C357.343 76.8772 360.52 77.3432 361.24 76.4536C361.791 75.7334 361.961 73.6999 363.359 73.1492C363.74 73.0221 364.079 73.0645 364.46 73.4034C364.884 73.7846 364.884 74.3777 364.672 75.3097C364.587 75.4368 364.375 75.9876 364.375 76.0723C364.248 76.4536 364.164 76.5807 364.164 76.9196ZM368.771 91.0267C368.898 92.34 368.983 92.9331 370.296 93.3991C372.202 94.0769 375.761 91.7893 377.54 90.6031V93.0178L375.761 94.204C372.668 96.0256 370.254 97.5931 367.67 96.3645C365.933 95.5173 365.085 93.3567 365.001 91.8316C364.704 88.612 366.865 84.6721 370.508 82.0032C371.736 81.1136 372.541 80.8594 373.516 81.283C374.278 81.6219 374.744 82.1727 374.829 83.2318C375.083 85.9431 371.991 88.2307 369.195 90.5183L368.771 91.0267ZM369.745 86.3667C369.322 86.7903 368.813 87.5105 368.813 87.9342C368.983 88.2731 369.449 88.0189 369.661 87.68C369.957 87.214 370.084 87.2987 370.466 87.0021C370.932 86.5785 371.101 86.3243 371.27 86.0278C371.525 85.7312 371.525 85.3923 371.27 85.2229C370.847 85.2229 370 85.9854 369.745 86.3667ZM391.605 90.3913V93.0602C389.487 94.4582 385.928 96.7458 383.217 95.602C381.056 94.7124 380.76 93.6109 380.166 91.2809C379.446 91.6198 379.658 91.5351 378.811 92.4247C378.684 92.5094 378.43 92.7213 378.048 93.0178L377.879 93.1873L377.667 93.272L377.413 93.3991L377.328 93.272C377.455 92.4671 377.498 92.2553 377.498 92.0011C377.498 91.4927 377.328 91.1962 377.582 90.7302L378.26 90.1371C380.124 88.2307 379.785 88.6543 380.166 86.7056C380.082 84.884 381.141 80.2663 382.327 76.8772L383.259 74.9285C383.894 73.5305 386.14 67.769 388.597 66.8794C389.148 66.7099 389.741 66.7946 390.08 67.0064C390.969 67.5572 390.842 67.9384 390.885 68.5739C391.266 71.963 389.021 77.1314 387.58 80.6052L386.902 81.7914C386.86 82.0032 386.436 82.4692 386.394 82.554C386.309 82.7234 386.182 83.1047 386.097 83.3589L384.403 85.9431L383.852 87.0021L383.005 88.0612C382.878 88.3578 382.962 89.2051 383.386 90.3065C383.81 91.408 384.403 92.2553 385.759 92.5094C388.131 93.0178 389.275 91.0691 391.605 90.3913ZM387.665 73.6576L387.453 73.8694L387.114 74.293C386.818 74.5896 386.775 74.6319 386.394 75.1827C386.309 75.2674 385.843 76.0299 385.504 76.8348L385.123 78.2328L384.826 78.9954L384.53 79.885C384.488 79.885 384.233 80.3087 384.149 80.5205L383.894 81.4525C383.428 82.9776 383.386 82.8505 383.217 83.9096C383.598 83.9096 384.106 83.3165 384.276 82.8081L384.615 82.1727C387.284 77.2161 386.606 78.6141 387.877 73.6576H387.665ZM405.629 90.3913V93.0602C403.511 94.4582 399.953 96.7458 397.241 95.602C395.081 94.7124 394.784 93.6109 394.191 91.2809C393.471 91.6198 393.683 91.5351 392.836 92.4247C392.708 92.5094 392.454 92.7213 392.073 93.0178L391.904 93.1873L391.692 93.272L391.438 93.3991L391.353 93.272C391.48 92.4671 391.522 92.2553 391.522 92.0011C391.522 91.4927 391.353 91.1962 391.607 90.7302L392.285 90.1371C394.149 88.2307 393.81 88.6543 394.191 86.7056C394.106 84.884 395.166 80.2663 396.352 76.8772L397.284 74.9285C397.919 73.5305 400.165 67.769 402.622 66.8794C403.172 66.7099 403.765 66.7946 404.104 67.0064C404.994 67.5572 404.867 67.9384 404.909 68.5739C405.291 71.963 403.045 77.1314 401.605 80.6052L400.927 81.7914C400.885 82.0032 400.461 82.4692 400.419 82.554C400.334 82.7234 400.207 83.1047 400.122 83.3589L398.428 85.9431L397.877 87.0021L397.03 88.0612C396.902 88.3578 396.987 89.2051 397.411 90.3065C397.835 91.408 398.428 92.2553 399.783 92.5094C402.156 93.0178 403.299 91.0691 405.629 90.3913ZM401.69 73.6576L401.478 73.8694L401.139 74.293C400.842 74.5896 400.8 74.6319 400.419 75.1827C400.334 75.2674 399.868 76.0299 399.529 76.8348L399.148 78.2328L398.851 78.9954L398.555 79.885C398.512 79.885 398.258 80.3087 398.173 80.5205L397.919 81.4525C397.453 82.9776 397.411 82.8505 397.241 83.9096C397.623 83.9096 398.131 83.3165 398.301 82.8081L398.639 82.1727C401.308 77.2161 400.631 78.6141 401.901 73.6576H401.69ZM415.418 74.0388C415.164 75.5216 414.782 78.1905 412.706 79.1225C412.156 79.4614 412.368 79.2919 411.69 79.2919C411.351 79.2919 411.52 79.419 411.139 79.2919C410.8 79.3767 410.927 79.3343 410.588 79.2072C410.122 78.0634 409.868 77.3432 410.504 76.2841C410.673 75.9876 410.927 75.691 411.266 75.3521C411.52 75.0556 411.605 74.8861 412.24 74.6743C412.41 74.5048 412.368 74.4625 412.579 74.2083C412.579 74.1659 412.834 73.9541 413.045 73.8694C413.172 73.7846 413.596 73.5728 414.062 73.4881C414.613 73.3186 415.037 73.1916 415.418 74.0388ZM417.96 90.3489V92.806C416.265 94.5005 414.401 95.9409 412.791 95.6444C412.283 95.5596 411.859 95.3054 411.181 94.5429C411.012 94.3311 410.758 93.9922 410.588 93.6533C410.376 93.4414 410.292 93.0602 410.292 92.806C410.122 92.5094 409.783 92.0434 409.572 91.6622C409.402 91.3233 409.444 90.7725 408.851 90.6878C408.47 90.6031 407.623 91.408 407.072 91.9163C406.86 92.0434 406.86 92.0858 406.691 92.3823C406.606 92.3823 406.31 92.5518 406.182 92.6365C406.098 92.7636 405.759 93.3567 405.378 93.2296C405.378 92.7636 405.42 92.2976 405.42 91.8316C405.42 91.5774 405.462 90.6878 405.547 90.4336C406.182 90.01 406.437 89.7982 406.691 89.544L407.326 88.8238C408.131 87.8918 408.258 87.5529 409.148 86.7056C409.741 86.2396 409.487 86.4514 409.91 85.7736C410.504 85.2652 410.376 85.35 411.054 85.4347C411.732 85.5194 412.495 85.9854 412.834 86.5785C412.918 86.748 413.342 91.0267 414.062 91.7469C414.571 92.3823 414.655 92.2129 415.291 92.0858C415.757 92.0011 416.223 91.7469 416.646 91.3656C416.858 91.0691 417.367 90.6031 417.96 90.3489ZM431.223 79.2072C431.774 79.6732 431.986 79.6309 431.986 80.351C432.07 80.7747 432.028 81.2407 431.986 81.7067C431.265 82.6387 430.079 83.9096 429.867 84.1214L427.495 86.1972C426.944 86.748 426.563 87.0869 426.097 87.5105C425.504 87.9342 425.165 88.3154 424.657 88.6543C424.318 89.078 424.106 90.7725 424.275 91.5351C424.403 92.2553 425.25 93.8227 426.309 95.2207L432.96 90.3489C433.214 93.3567 433.172 92.6365 429.613 95.5173L428.893 96.1951C428.597 96.4916 427.876 96.9576 427.707 97.3389V97.6355C429.19 100.77 430.291 103.185 427.834 106.362C426.139 108.438 422.157 110.98 419.531 110.472C418.641 110.26 417.37 109.54 417.201 108.608C416.608 105.642 418.938 102.507 421.649 99.796L423.132 98.3133C423.132 97.9744 423.174 98.0167 422.962 97.5084C422.793 97.1695 422.496 96.9153 422.327 96.6611C422.242 96.5764 421.522 95.5596 421.225 94.9665C420.547 93.738 420.59 92.806 420.42 91.5351L417.667 93.3567C417.751 91.7469 417.667 91.408 417.624 90.9843L418.217 90.3489C419.743 88.9932 420.971 88.2731 421.564 87.4258L421.945 86.7903C423.725 84.1638 428.046 79.4614 431.223 79.2072ZM423.64 101.236C421.352 103.778 420.632 104.329 419.277 107.167C419.743 107.93 419.404 107.76 420.166 108.015C420.336 108.057 420.632 108.015 421.395 107.803C423.132 107.252 425.165 105.642 425.716 103.99C426.224 102.592 425.546 101.406 424.657 100.093L423.64 101.236ZM436.619 91.0267C436.746 92.34 436.831 92.9331 438.144 93.3991C440.051 94.0769 443.609 91.7893 445.389 90.6031V93.0178L443.609 94.204C440.517 96.0256 438.102 97.5931 435.518 96.3645C433.781 95.5173 432.934 93.3567 432.849 91.8316C432.552 88.612 434.713 84.6721 438.356 82.0032C439.585 81.1136 440.39 80.8594 441.364 81.283C442.126 81.6219 442.592 82.1727 442.677 83.2318C442.931 85.9431 439.839 88.2307 437.043 90.5183L436.619 91.0267ZM437.594 86.3667C437.17 86.7903 436.662 87.5105 436.662 87.9342C436.831 88.2731 437.297 88.0189 437.509 87.68C437.805 87.214 437.932 87.2987 438.314 87.0021C438.78 86.5785 438.949 86.3243 439.119 86.0278C439.373 85.7312 439.373 85.3923 439.119 85.2229C438.695 85.2229 437.848 85.9854 437.594 86.3667ZM452.505 92.5094C453.014 92.34 452.887 92.0858 453.225 91.7045C453.691 91.1114 453.48 91.3233 454.157 90.8996C454.327 90.7302 454.327 90.476 454.878 89.9252C455.047 89.7558 455.132 89.6287 455.301 89.4592C455.598 89.2898 455.555 89.3745 455.81 89.0356C457.25 87.5529 458.182 86.6632 459.665 86.748C460.724 86.7903 461.105 87.2987 461.783 88.612C462.122 89.2474 462.588 91.3656 463.477 91.6622C463.774 91.6622 464.155 91.7045 464.537 91.2809C464.875 90.8573 465.13 90.5607 465.638 90.7302C465.723 92.7213 466.231 92.7636 464.494 94.2464C463.647 95.0513 462.757 95.6444 461.741 95.3478C461.105 95.2207 460.639 94.7547 460.004 93.7804C459.707 93.3567 459.622 93.3567 459.453 92.7636C458.817 92.1282 458.987 92.1282 458.606 91.8316C458.479 91.5351 458.097 90.8573 457.504 91.1114C456.911 91.2385 454.496 93.3567 454.115 93.8227C454.03 94.0769 453.776 94.4582 453.607 94.7124C453.395 95.0513 453.268 95.136 452.844 95.4749C452.463 96.0256 452.717 95.8138 452.209 96.3645C452.209 96.3645 451.361 97.0847 451.277 97.1695C450.599 97.8473 450.726 98.1862 449.752 98.5251L448.947 98.6098C448.693 98.6098 448.311 98.5675 448.015 98.3556C447.888 96.1951 448.354 94.7124 449.031 92.4671L449.286 91.4927C449.286 91.3656 449.286 91.1114 449.413 90.8996C449.582 90.5183 449.413 90.6031 449.413 90.2218L449.625 89.7982L449.37 89.544C449.201 89.544 448.82 89.6287 448.481 89.9676C448.184 90.2218 448.015 90.5607 447.718 90.8996C447.506 91.1114 447.167 91.4503 446.871 91.7469C446.574 92.0434 446.235 92.4671 446.066 92.7636L445.176 93.5262C445.261 92.6365 445.261 92.34 445.261 92.0434C445.219 91.8316 445.219 90.7725 445.346 90.5607C445.685 89.7558 446.363 89.0356 447.633 87.5105L448.099 87.0021C449.455 85.5618 451.065 83.1047 452.802 83.1894C453.183 83.2318 453.734 83.486 454.157 84.1214C454.962 85.3923 453.819 87.7647 453.31 89.544L452.59 91.7469C452.505 92.0011 452.421 92.2553 452.505 92.5094ZM478.366 82.215L478.705 82.4692C478.832 84.418 479.34 84.5027 477.18 86.1125L474.892 87.6376C473.071 89.1203 470.91 89.8405 470.741 92.2129C470.698 93.0178 470.868 93.6956 471.376 94.1193C471.842 94.4582 473.409 94.5853 474.257 94.3311C475.739 93.8227 477.815 92.5518 479.891 90.5607L480.357 90.942C480.103 93.5685 480.738 92.9331 477.858 94.8818C475.189 96.6187 472.096 98.4404 469.47 97.2542C467.224 96.2375 466.885 94.6276 466.716 92.806L465.615 93.3567C465.53 93.1025 465.572 93.0178 465.615 92.806C465.615 92.6365 465.657 92.4247 465.615 92.2129V91.9163V91.7469L465.657 91.6198L465.615 91.3233V91.0267L468.283 88.6967C471.207 86.2396 475.189 82.4692 478.366 82.215ZM483.823 91.0267C483.95 92.34 484.035 92.9331 485.348 93.3991C487.255 94.0769 490.813 91.7893 492.593 90.6031V93.0178L490.813 94.204C487.721 96.0256 485.306 97.5931 482.722 96.3645C480.985 95.5173 480.138 93.3567 480.053 91.8316C479.756 88.612 481.917 84.6721 485.56 82.0032C486.789 81.1136 487.594 80.8594 488.568 81.283C489.331 81.6219 489.797 82.1727 489.881 83.2318C490.136 85.9431 487.043 88.2307 484.247 90.5183L483.823 91.0267ZM484.798 86.3667C484.374 86.7903 483.866 87.5105 483.866 87.9342C484.035 88.2731 484.501 88.0189 484.713 87.68C485.01 87.214 485.137 87.2987 485.518 87.0021C485.984 86.5785 486.153 86.3243 486.323 86.0278C486.577 85.7312 486.577 85.3923 486.323 85.2229C485.899 85.2229 485.052 85.9854 484.798 86.3667Z" fill="#FFFFFF"/>
<path fill-rule="evenodd" clip-rule="evenodd" d="M177.411 39.1138V38.1691C177.411 32.6317 181.404 27.7775 186.858 27.7775C192.237 27.7775 196.305 32.5832 196.305 37.9592V39.3238C196.305 44.3312 192.379 49.4005 187.487 49.4005H186.333C181.292 49.4005 177.411 44.3125 177.411 39.1138ZM207.286 48.6657L202.294 48.5696C201.942 46.9015 201.532 45.2575 201.155 43.5995C200.49 40.6726 200.113 41.1619 201.705 39.3711C202.417 38.569 207.199 33.1796 207.328 32.711L207.326 5H196.199V23.9988C193.838 22.4172 193.511 20.1179 187.551 18.6863C183.215 17.6447 178.788 18.8619 175.87 20.3587C169.922 23.4096 166.286 29.8599 166.284 38.9039C166.283 47.6759 170.35 54.1137 176.184 57.0296C181.12 59.496 187.748 59.9337 192.662 56.2552C193.887 55.3385 195.535 53.2045 196.199 52.7593V58.2176H207.326L207.286 48.6657Z" fill="#2AA9E0"/>
<path fill-rule="evenodd" clip-rule="evenodd" d="M211.436 40.5855L224.435 25.2463L224.457 40.5856L211.436 40.5855ZM205.035 33.7628C204.906 34.2314 200.124 39.6208 199.411 40.4229C197.82 42.2137 198.197 41.7244 198.862 44.6513C199.239 46.3093 199.648 47.9533 200.001 49.6214L204.993 49.7175H224.557C224.261 50.3326 224.451 56.4222 224.451 57.6949C224.451 61.5116 222.999 60.358 233.799 60.533C235.703 60.5639 235.053 60.1755 235.053 57.9048C235.053 55.1757 235.053 52.4467 235.053 49.7175C236.934 49.7175 238.856 49.6787 240.731 49.7278C242.259 49.7677 241.888 49.6072 241.877 48.039L241.876 42.3694C241.887 40.0937 243.106 40.5855 235.053 40.5855V9.93555C232.814 9.93555 230.574 9.93555 228.335 9.93555C224.608 9.93555 225.712 10.0174 223.798 12.1164C220.356 15.8913 206.522 32.7558 205.035 33.7628Z" fill="#2AA9E0"/>
<path fill-rule="evenodd" clip-rule="evenodd" d="M144.256 38.3694L130.53 58.172L142.247 58.2176L150.01 46.1437L157.898 58.2104C159.114 58.2111 169.602 58.3184 169.849 58.1482L156.11 38.1642L169.276 19.1018L157.572 19.0654L150.284 30.3721L143.035 19.0989L131.121 19.0654L144.256 38.3694Z" fill="#2AA9E0"/>
<defs>
<filter id="filter0_d_317_2" x="5.96046e-07" y="5" width="108.155" height="106.565" filterUnits="userSpaceOnUse" color-interpolation-filters="sRGB">
<feFlood flood-opacity="0" result="BackgroundImageFix"/>
<feColorMatrix in="SourceAlpha" type="matrix" values="0 0 0 0 0 0 0 0 0 0 0 0 0 0 0 0 0 0 127 0" result="hardAlpha"/>
<feOffset dy="0.530151"/>
<feGaussianBlur stdDeviation="0.265075"/>
<feComposite in2="hardAlpha" operator="out"/>
<feColorMatrix type="matrix" values="0 0 0 0 0 0 0 0 0 0 0 0 0 0 0 0 0 0 0.25 0"/>
<feBlend mode="normal" in2="BackgroundImageFix" result="effect1_dropShadow_317_2"/>
<feBlend mode="normal" in="SourceGraphic" in2="effect1_dropShadow_317_2" result="shape"/>
</filter>
</defs>
</svg>
