<svg width="816" height="803" viewBox="0 0 816 803" fill="none" xmlns="http://www.w3.org/2000/svg">
<g filter="url(#filter0_d_209_88)">
<path fill-rule="evenodd" clip-rule="evenodd" d="M325.207 341.992C329.834 339.593 352.337 381.799 355.719 387.23C363.989 400.518 367.579 398.918 359.314 411.085C346.959 429.272 284.214 523.751 282.956 529.171L290.05 531.196L354.502 531.93L405.686 453.055L407.173 454.035C411.167 461.768 429.26 483.787 436.301 494.387C443.98 505.948 461.778 524.314 459.892 539.758C457.193 561.847 454.233 576.498 447.054 596.384C443.348 606.649 423.794 642.431 423.758 642.83C431.152 651.164 453.921 667.077 466.64 674.544C491.683 689.245 492.72 672.863 504.245 650.589C512.276 635.066 520.263 614.822 525.21 596.743C527.959 586.694 533.918 536.17 538.104 533.803C549.557 531.236 567.022 531.608 580.235 530.062C594.113 528.437 607.371 525.305 618.882 521.774C630.718 518.143 680.028 499.552 683.009 493.063L722.331 465.156L723.731 467.183C731.585 472.898 734.171 518.149 734.099 530.464C733.948 556.252 731.437 570.86 723.415 593.318C713.021 622.419 679.204 670.856 659.84 676.68C657.854 676.837 642.199 688.465 638.247 690.742C605.103 709.84 593.726 710.652 554.566 714.865C509.753 719.684 467.581 700.704 442.472 684.029C414.598 665.518 390.858 638.26 376.253 606.512C372.396 598.127 369.142 589.339 366.663 580.167C363.631 568.945 364.581 559.67 352.295 558.601C343.93 557.873 283.663 557.165 282.897 559.064H280.696C281.195 581.444 294.378 622.021 302.199 638.031C307.806 649.508 313.338 659.689 319.789 670.309C325.482 679.683 337.378 693.342 340.832 699.868C333.562 710.723 289.211 715.256 268.229 715.268C226.691 715.29 202.849 700.511 194.894 700.156C131.152 675.532 88.0104 611.213 81.7284 543.816C80.1526 526.909 83.5179 477.108 93.6917 466.618L154.741 504.796L208.094 524.381L239.253 529.333L276.999 475.424C279.731 471.155 287.872 460.381 289.108 456.282C271.596 455.72 248.274 454.336 231.476 450.467C218.792 447.546 193.971 440.041 185.617 432.927L137.32 398.473C138.835 396.445 165.446 374.501 172.099 370.531C184.314 363.244 198.45 356.275 213.247 351.545C247.467 340.605 280.628 341.992 325.207 341.992ZM520.503 80.689L575.505 81.4427C635.316 87.3977 681.443 129.706 703.6 162.555C718.142 184.116 728.307 207.451 732.279 238.836C734.685 257.852 734.519 319.146 722.908 330.448L633.308 278.19C629.645 275.306 603.142 269.155 595.713 267.515C574.825 262.903 574.693 270.117 565.448 282.801C560.613 289.436 526.525 337.197 525.636 340.525C571.305 340.525 614.578 350.429 648.851 373.514C659.301 380.553 668.743 391.169 677.441 396.993C673.322 403.143 655.568 416.883 648.554 421.641C643.822 424.853 614.239 439.848 613.876 440.26C594.523 455.53 510.861 456.315 483.223 452.897C479.306 449.623 458.211 415.51 453.824 407.952C446.391 395.143 449.853 394.857 456.971 384.052C462.066 376.319 466.756 369.084 471.738 361.421C479.559 349.393 530.087 276.201 530.172 268.799L459.159 267.993L408.267 345.554C401.212 340.878 356.03 269.907 355.404 263.495C352.275 231.471 374.96 184.789 386.681 161.435L388.018 159.517L328.125 119.785H325.881C324.02 125.213 312.96 140.994 308.687 149.99C285.14 199.548 288.936 217.508 281.43 265.697L218.361 268.859C203.785 267.295 161.323 286.401 149.687 291.651C136.977 297.383 95.6709 328.459 94.4244 328.791C93.4515 317.101 84.7936 306.606 84.8888 267.191C84.9555 239.685 87.6986 225.83 94.6954 205.125C106.422 170.424 128.614 141.789 154.08 120.772C175.231 103.315 218.962 80.528 256.468 80.1563C291.788 79.8056 318.826 82.2169 348.17 96.3129C352.179 98.2393 369.775 108.368 371.632 108.711C408.154 126.838 448.85 177.749 458.039 236.696L533.393 236.768C529.538 208.223 520.888 180.716 510.299 157.134C496.79 127.047 472.244 98.2948 470.603 92.2682L520.503 80.689ZM695.626 748.269C723.115 722.748 738.038 713.033 761.643 679.925C779.71 654.587 794.342 622.415 802.991 586.362C810.369 555.612 809.019 493.078 800.95 462.741C796.459 445.853 789.512 428.778 782.58 413.603C777.849 403.246 773.234 400.276 778.102 390.577C781.792 383.227 785.408 375.722 788.951 367.677C819.603 298.09 812.327 210.318 779.811 145.76C755.732 97.9517 724.02 66.5827 682.343 40.8007C672.878 34.9453 644.631 22.0664 638.434 17.1164C632.92 11.558 590.959 4.11258 578.267 2.61912C556.109 0.0137173 529.926 -0.343189 508.103 2.51626C486.334 5.36946 466.992 11.0937 449.051 18.2654C440.175 21.8132 431.056 25.5413 422.957 29.5735C408.54 36.7479 411.304 38.7884 397.299 31.7831C315.859 -8.95687 241.195 -10.343 155.184 26.541C94.4056 52.6039 35.4493 119.451 15.7091 187.007C-2.75726 250.202 0.783393 313.118 26.9139 374.301C41.1051 407.527 40.2236 391.733 24.7526 425.59C-10.9729 503.775 2.58772 600.562 41.3883 664.902C76.9375 723.851 138.111 773.709 216.585 789.647C258.504 798.161 316.413 794.288 351.011 782.649C370.532 776.082 385.587 768.408 403.356 760.12C411.431 756.354 420.5 763.874 428.342 767.829C473.696 790.705 530.188 799.028 588.812 791.644C612.582 788.651 689.015 760.548 695.626 748.269Z" fill="#2AA7DE"/>
<path fill-rule="evenodd" clip-rule="evenodd" d="M695.626 748.269C709.133 744.989 755.152 694.144 764.127 680.951C782.003 654.675 798.397 623.722 806.049 587.203C814.214 548.231 813.682 500.99 804.46 464.312C799.915 446.231 794.09 429.942 786.469 414.834C781.399 404.782 776.864 401.967 781.448 391.74C785.081 383.637 788.633 376.087 791.95 367.766C822.601 290.886 816.959 213.454 782.87 144.893C767.513 114.004 747.982 90.8671 723.819 68.2741C711.567 56.8184 656.652 18.5202 638.434 17.1162C644.631 22.0662 672.878 34.9452 682.343 40.8005C724.02 66.5826 755.732 97.9515 779.811 145.76C812.327 210.318 819.603 298.09 788.951 367.677C785.408 375.722 781.792 383.227 778.102 390.577C773.234 400.276 777.849 403.246 782.58 413.603C789.512 428.777 796.459 445.853 800.95 462.741C809.019 493.078 810.369 555.612 802.991 586.361C794.342 622.415 779.71 654.587 761.643 679.925C738.038 713.032 723.115 722.748 695.626 748.269Z" fill="#2AA7DE"/>
<path fill-rule="evenodd" clip-rule="evenodd" d="M613.876 440.26C595.634 441.597 586.792 455.185 515.368 452.73C490.829 451.886 486.721 452.162 475.671 436.692C468.837 427.125 458.523 413.522 453.054 403.486C447.154 392.657 534.814 279.55 535.904 266.456L456.701 266.393L406.1 343.458C402.872 331.366 358.216 271.845 358.493 261.461C358.905 246.001 364.914 219.513 369.148 206.771C374.134 191.764 387.508 171.527 389.966 162.32C383.615 152.835 342.337 120.066 328.125 119.785L388.018 159.517L386.681 161.435C374.96 184.789 352.275 231.471 355.404 263.494C356.03 269.907 401.212 340.878 408.268 345.554L459.159 267.993L530.172 268.799C530.088 276.201 479.559 349.393 471.738 361.421C466.756 369.084 462.066 376.319 456.971 384.052C449.853 394.857 446.391 395.143 453.824 407.952C458.211 415.51 479.306 449.623 483.223 452.897C510.861 456.315 594.523 455.53 613.876 440.26Z" fill="#2AA7DE"/>
<path fill-rule="evenodd" clip-rule="evenodd" d="M354.501 531.93L406.313 456.311C409.337 458.283 430.856 491.338 434.84 497.323C439.476 504.286 443.518 510.589 448.19 517.707C454.402 527.171 458.237 527.44 456.458 541.212C452.66 570.634 446.524 594.544 433.48 619.445C430.99 624.199 421.611 638.037 420.766 641.2C427.863 651.797 472.05 684.771 486.034 685.934C486.091 685.72 502.772 660.587 505.594 654.892C522.916 619.943 538.103 576.912 538.103 533.804C533.918 536.171 527.958 586.694 525.209 596.743C520.263 614.822 512.276 635.066 504.244 650.589C492.719 672.864 491.682 689.245 466.639 674.544C453.92 667.078 431.151 651.164 423.757 642.83C423.793 642.431 443.347 606.649 447.053 596.384C454.232 576.498 457.192 561.848 459.891 539.758C461.777 524.314 443.98 505.948 436.3 494.387C429.259 483.787 411.166 461.768 407.173 454.035L405.685 453.055L354.501 531.93Z" fill="#2AA7DE"/>
<path fill-rule="evenodd" clip-rule="evenodd" d="M633.309 278.19L722.909 330.448C734.52 319.146 734.686 257.852 732.279 238.836C728.308 207.45 718.143 184.116 703.601 162.555C681.444 129.706 635.316 87.3976 575.505 81.4426C576.031 81.8706 611.193 91.6772 615.219 93.2717C627.69 98.2088 638.224 104.169 648.694 111.131C689.227 138.086 722.228 185.705 729.273 236.625C732.556 260.346 731.483 315.951 719.242 326.591C716.88 326.041 705.048 315.153 700.617 312.214C693.446 307.458 687.172 303.677 679.71 299.389C672.063 294.994 642.366 278.891 633.309 278.19Z" fill="#2AA7DE"/>
<path fill-rule="evenodd" clip-rule="evenodd" d="M371.632 108.711C376.644 116.019 418.698 135.806 443.407 197.615C447.917 208.899 451.819 230.676 455.968 239.322H536.636C533.443 200.951 515.816 156.032 496.714 125.24C490.297 114.896 478.866 102.522 476.097 91.8233L520.503 80.6888L470.603 92.2679C472.244 98.2946 496.79 127.047 510.299 157.134C520.887 180.716 529.538 208.223 533.393 236.768L458.038 236.696C448.85 177.749 408.153 126.838 371.632 108.711Z" fill="#2AA7DE"/>
<path fill-rule="evenodd" clip-rule="evenodd" d="M683.01 493.063L721.442 468.861C737.527 499.259 731.208 561.667 720.43 592.519C714.386 609.82 704.906 625.54 695.2 639.158C688.504 648.552 661.063 674.403 659.841 676.68C679.204 670.855 713.021 622.419 723.415 593.318C731.437 570.86 733.948 556.252 734.099 530.464C734.171 518.149 731.585 472.898 723.731 467.183L722.331 465.156L683.01 493.063Z" fill="#2AA7DE"/>
<path fill-rule="evenodd" clip-rule="evenodd" d="M194.893 700.156C194.026 699.155 171.451 686.918 167.317 684.176C121.387 653.705 90.5147 603.252 85.5391 545.948C83.7594 525.443 86.7987 479.515 94.4234 468.128L154.74 504.795L93.6908 466.617C83.517 477.107 80.1517 526.908 81.7274 543.816C88.0095 611.213 131.151 675.532 194.893 700.156Z" fill="#2AA7DE"/>
<path fill-rule="evenodd" clip-rule="evenodd" d="M290.051 531.196L282.957 529.171C284.215 523.751 346.96 429.272 359.315 411.085C367.581 398.918 363.99 400.518 355.72 387.23C352.339 381.799 329.835 339.593 325.208 341.992C328.052 349.78 347.291 378.799 353.175 389.051C360.686 402.135 360.596 402.601 353.354 414.648C340.81 435.513 279.905 523.687 278.498 529.73L290.051 531.196Z" fill="#2AA7DE"/>
<path fill-rule="evenodd" clip-rule="evenodd" d="M218.362 268.859L281.43 265.696C288.936 217.508 285.14 199.548 308.687 149.99C312.96 140.994 324.02 125.213 325.882 119.785C315.695 122.697 297.287 167.896 292.889 181.112C285.644 202.885 278.496 233.707 278.496 262.056L278.382 260.96L218.362 268.859Z" fill="#2AA7DE"/>
<path fill-rule="evenodd" clip-rule="evenodd" d="M208.094 524.381L211.869 525.971C217.796 527.535 238.7 531.573 241.989 529.172C250.104 523.249 292.082 458.375 292.43 454.195C282.767 453.979 273.539 452.718 262.341 452.749C246.48 452.795 222.974 447.188 208.361 442.193L185.616 432.927C193.97 440.041 218.791 447.546 231.476 450.468C248.273 454.336 271.596 455.72 289.107 456.282C287.871 460.381 279.73 471.155 276.998 475.424L239.252 529.333L208.094 524.381Z" fill="#2AA7DE"/>
</g>
<defs>
<filter id="filter0_d_209_88" x="0" y="0" width="816" height="802.262" filterUnits="userSpaceOnUse" color-interpolation-filters="sRGB">
<feFlood flood-opacity="0" result="BackgroundImageFix"/>
<feColorMatrix in="SourceAlpha" type="matrix" values="0 0 0 0 0 0 0 0 0 0 0 0 0 0 0 0 0 0 127 0" result="hardAlpha"/>
<feOffset dy="4"/>
<feGaussianBlur stdDeviation="2"/>
<feComposite in2="hardAlpha" operator="out"/>
<feColorMatrix type="matrix" values="0 0 0 0 0 0 0 0 0 0 0 0 0 0 0 0 0 0 0.25 0"/>
<feBlend mode="normal" in2="BackgroundImageFix" result="effect1_dropShadow_209_88"/>
<feBlend mode="normal" in="SourceGraphic" in2="effect1_dropShadow_209_88" result="shape"/>
</filter>
</defs>
</svg>
